<svg width="209" height="36" viewBox="0 0 209 36" fill="none" xmlns="http://www.w3.org/2000/svg">
<path d="M5.565 29V9.64H15.805V6.6H2.365V29H5.565ZM27.5798 26.216C25.1478 26.216 23.1424 25.416 21.5638 23.816C19.9638 22.2373 19.1638 20.232 19.1638 17.8C19.1638 15.368 19.9638 13.3627 21.5638 11.784C23.1424 10.184 25.1478 9.384 27.5798 9.384C30.0118 9.384 32.0278 10.184 33.6278 11.784C35.2064 13.3627 35.9958 15.368 35.9958 17.8C35.9958 20.232 35.2064 22.2373 33.6278 23.816C32.0278 25.416 30.0118 26.216 27.5798 26.216ZM27.5798 6.28C24.2304 6.28 21.4571 7.368 19.2598 9.544C17.0624 11.72 15.9638 14.472 15.9638 17.8C15.9638 21.128 17.0624 23.88 19.2598 26.056C21.4571 28.232 24.2304 29.32 27.5798 29.32C30.9291 29.32 33.7024 28.232 35.8998 26.056C38.0971 23.88 39.1958 21.128 39.1958 17.8C39.1958 14.472 38.0971 11.72 35.8998 9.544C33.7024 7.368 30.9291 6.28 27.5798 6.28ZM61.3045 19.4C60.9632 21.4267 60.0458 23.0693 58.5525 24.328C57.0165 25.5867 55.1818 26.216 53.0485 26.216C50.6165 26.216 48.6112 25.416 47.0325 23.816C45.4325 22.2373 44.6325 20.232 44.6325 17.8C44.6325 15.368 45.4325 13.352 47.0325 11.752C48.6112 10.1733 50.6165 9.384 53.0485 9.384C55.1818 9.384 57.0165 10.0133 58.5525 11.272C60.0458 12.5307 60.9632 14.1733 61.3045 16.2H64.5045C64.1418 13.2773 62.9152 10.8987 60.8245 9.064C58.6912 7.208 56.0992 6.28 53.0485 6.28C49.6992 6.28 46.9258 7.368 44.7285 9.544C42.5312 11.72 41.4325 14.472 41.4325 17.8C41.4325 21.128 42.5312 23.88 44.7285 26.056C46.9258 28.232 49.6992 29.32 53.0485 29.32C56.0992 29.32 58.6912 28.392 60.8245 26.536C62.9152 24.7013 64.1418 22.3227 64.5045 19.4H61.3045ZM65.7925 6.6V9.64H72.5125V29H75.7125V9.64H82.4325V6.6H65.7925ZM99.8663 6.6L88.3463 22.664V6.6H85.1463V29H87.7063L99.2263 12.936V29H102.426V6.6H99.8663ZM117.392 26.216C114.96 26.216 112.955 25.416 111.376 23.816C109.776 22.2373 108.976 20.232 108.976 17.8C108.976 15.368 109.776 13.3627 111.376 11.784C112.955 10.184 114.96 9.384 117.392 9.384C119.824 9.384 121.84 10.184 123.44 11.784C125.019 13.3627 125.808 15.368 125.808 17.8C125.808 20.232 125.019 22.2373 123.44 23.816C121.84 25.416 119.824 26.216 117.392 26.216ZM117.392 6.28C114.043 6.28 111.27 7.368 109.072 9.544C106.875 11.72 105.776 14.472 105.776 17.8C105.776 21.128 106.875 23.88 109.072 26.056C111.27 28.232 114.043 29.32 117.392 29.32C120.742 29.32 123.515 28.232 125.712 26.056C127.91 23.88 129.008 21.128 129.008 17.8C129.008 14.472 127.91 11.72 125.712 9.544C123.515 7.368 120.742 6.28 117.392 6.28ZM146.445 6.6V16.2H135.565V6.6H132.365V29H135.565V19.24H146.445V29H149.645V6.6H146.445Z" fill="#767676"/>
<path d="M165.385 8.96C163.609 8.848 162.241 9.232 161.281 10.112C160.337 10.992 159.865 12.288 159.865 14H157.945V16.28H159.865V26H162.265V16.28H165.385V14H162.265C162.265 12.944 162.505 12.192 162.985 11.744C163.481 11.296 164.281 11.128 165.385 11.24V8.96ZM171.976 23.912C170.84 23.912 169.904 23.544 169.168 22.808C168.432 22.072 168.064 21.136 168.064 20C168.064 18.864 168.432 17.928 169.168 17.192C169.904 16.456 170.84 16.088 171.976 16.088C173.112 16.088 174.048 16.456 174.784 17.192C175.52 17.928 175.888 18.864 175.888 20C175.888 21.136 175.52 22.072 174.784 22.808C174.048 23.544 173.112 23.912 171.976 23.912ZM171.976 13.76C170.152 13.76 168.648 14.352 167.464 15.536C166.264 16.704 165.664 18.192 165.664 20C165.664 21.808 166.264 23.296 167.464 24.464C168.648 25.648 170.152 26.24 171.976 26.24C173.8 26.24 175.304 25.648 176.488 24.464C177.688 23.296 178.288 21.808 178.288 20C178.288 18.192 177.688 16.704 176.488 15.536C175.304 14.352 173.8 13.76 171.976 13.76ZM186.273 23.912C185.137 23.912 184.201 23.544 183.465 22.808C182.729 22.072 182.361 21.136 182.361 20C182.361 18.864 182.729 17.928 183.465 17.192C184.201 16.456 185.137 16.088 186.273 16.088C187.409 16.088 188.345 16.456 189.081 17.192C189.817 17.928 190.185 18.864 190.185 20C190.185 21.136 189.817 22.072 189.081 22.808C188.345 23.544 187.409 23.912 186.273 23.912ZM186.273 13.76C184.449 13.76 182.945 14.352 181.761 15.536C180.561 16.704 179.961 18.192 179.961 20C179.961 21.808 180.561 23.296 181.761 24.464C182.945 25.648 184.449 26.24 186.273 26.24C188.097 26.24 189.601 25.648 190.785 24.464C191.985 23.296 192.585 21.808 192.585 20C192.585 18.192 191.985 16.704 190.785 15.536C189.601 14.352 188.097 13.76 186.273 13.76ZM200.618 23.96C199.45 23.96 198.498 23.592 197.762 22.856C197.026 22.12 196.658 21.168 196.658 20C196.658 18.832 197.026 17.88 197.762 17.144C198.498 16.408 199.45 16.04 200.618 16.04C201.786 16.04 202.738 16.408 203.474 17.144C204.21 17.88 204.578 18.832 204.578 20C204.578 21.168 204.21 22.12 203.474 22.856C202.738 23.592 201.786 23.96 200.618 23.96ZM204.578 9.2V15.584C203.426 14.368 201.986 13.76 200.258 13.76C198.546 13.76 197.122 14.352 195.986 15.536C194.834 16.736 194.258 18.224 194.258 20C194.258 21.776 194.834 23.264 195.986 24.464C197.122 25.648 198.546 26.24 200.258 26.24C201.986 26.24 203.426 25.632 204.578 24.416V26H206.978V9.2H204.578Z" fill="#FCA623"/>
</svg>
