<svg width="23" height="25" viewBox="0 0 23 25" fill="none" xmlns="http://www.w3.org/2000/svg">
<path fill-rule="evenodd" clip-rule="evenodd" d="M5.19355 6.25771C5.19355 2.80167 8.01704 0 11.5 0C14.983 0 17.8065 2.80167 17.8065 6.25771C17.8065 9.71375 14.983 12.5154 11.5 12.5154C8.01704 12.5154 5.19355 9.71375 5.19355 6.25771ZM11.5 2.2086C9.24632 2.2086 7.41935 4.02145 7.41935 6.25771C7.41935 8.49397 9.24632 10.3068 11.5 10.3068C13.7537 10.3068 15.5806 8.49397 15.5806 6.25771C15.5806 4.02145 13.7537 2.2086 11.5 2.2086Z" fill="#FCA623"/>
<path fill-rule="evenodd" clip-rule="evenodd" d="M5.56452 16.9326C3.7206 16.9326 2.22581 18.4159 2.22581 20.2455V21.9952C2.22581 22.0218 2.24526 22.0445 2.27176 22.0488C8.38346 23.0389 14.6165 23.0389 20.7282 22.0488C20.7547 22.0445 20.7742 22.0218 20.7742 21.9952V20.2455C20.7742 18.4159 19.2794 16.9326 17.4355 16.9326H16.9297C16.8906 16.9326 16.8517 16.9388 16.8145 16.9508L15.5302 17.3669C12.9114 18.2154 10.0886 18.2154 7.46978 17.3669L6.18547 16.9508C6.14829 16.9388 6.10943 16.9326 6.07032 16.9326H5.56452ZM0 20.2455C0 17.1961 2.49132 14.724 5.56452 14.724H6.07032C6.34408 14.724 6.61613 14.767 6.87637 14.8513L8.16068 15.2674C10.3305 15.9705 12.6695 15.9705 14.8393 15.2674L16.1236 14.8513C16.3839 14.767 16.6559 14.724 16.9297 14.724H17.4355C20.5087 14.724 23 17.1961 23 20.2455V21.9952C23 23.1042 22.19 24.0499 21.0869 24.2286C14.7377 25.2572 8.26234 25.2572 1.91311 24.2286C0.810021 24.0499 0 23.1042 0 21.9952V20.2455Z" fill="#FCA623"/>
</svg>
