<svg width="37" height="26" viewBox="0 0 37 26" fill="none" xmlns="http://www.w3.org/2000/svg">
<path fill-rule="evenodd" clip-rule="evenodd" d="M30.7892 0.284356L18.1522 0L5.51524 0.284356C3.17358 0.337047 1.19089 2.01813 0.767487 4.30987C-0.255829 9.84879 -0.255829 15.5269 0.767487 21.0658C1.19089 23.3575 3.17358 25.0386 5.51524 25.0913L18.1522 25.3757L30.7892 25.0913C33.1309 25.0386 35.1136 23.3575 35.537 21.0658C36.5603 15.5269 36.5603 9.84879 35.537 4.30987C35.1136 2.01813 33.1309 0.337047 30.7892 0.284356ZM5.57491 2.90868L18.1522 2.62567L30.7296 2.90868C31.8207 2.93324 32.7445 3.71654 32.9418 4.78438C33.2114 6.24386 33.4057 7.71358 33.5247 9.18782H2.77972C2.89873 7.71358 3.09305 6.24386 3.36269 4.78438C3.55997 3.71654 4.48381 2.93324 5.57491 2.90868ZM2.63867 12.6878C2.63867 15.3333 2.88001 17.9787 3.36269 20.5913C3.55997 21.6591 4.48381 22.4424 5.57491 22.467L18.1522 22.75L30.7296 22.467C31.8207 22.4424 32.7445 21.6591 32.9418 20.5913C33.4245 17.9787 33.6658 15.3333 33.6658 12.6878H2.63867Z" fill="white"/>
</svg>
