<svg width="26" height="26" viewBox="0 0 26 26" fill="none" xmlns="http://www.w3.org/2000/svg">
<path d="M18.4757 6.33331C18.4757 5.59693 19.0758 4.99998 19.816 4.99998C20.5562 4.99998 21.1563 5.59693 21.1563 6.33331C21.1563 7.06969 20.5562 7.66665 19.816 7.66665C19.0758 7.66665 18.4757 7.06969 18.4757 6.33331Z" fill="white"/>
<path fill-rule="evenodd" clip-rule="evenodd" d="M13.1146 6.66665C9.59857 6.66665 6.74827 9.50218 6.74827 13C6.74827 16.4978 9.59857 19.3333 13.1146 19.3333C16.6306 19.3333 19.4809 16.4978 19.4809 13C19.4809 9.50218 16.6306 6.66665 13.1146 6.66665ZM8.75868 13C8.75868 10.6067 10.7089 8.66665 13.1146 8.66665C15.5203 8.66665 17.4705 10.6067 17.4705 13C17.4705 15.3932 15.5203 17.3333 13.1146 17.3333C10.7089 17.3333 8.75868 15.3932 8.75868 13Z" fill="white"/>
<path fill-rule="evenodd" clip-rule="evenodd" d="M20.1621 0.777333C15.5159 0.260746 10.7133 0.260746 6.0671 0.777333C3.37038 1.07717 1.19332 3.19052 0.876277 5.88722C0.32068 10.613 0.32068 15.387 0.876276 20.1127C1.19332 22.8094 3.37038 24.9228 6.0671 25.2226C10.7133 25.7392 15.5159 25.7392 20.1621 25.2226C22.8588 24.9228 25.0359 22.8094 25.3529 20.1127C25.9085 15.387 25.9085 10.613 25.3529 5.88722C25.0359 3.19052 22.8588 1.07717 20.1621 0.777333ZM6.2904 2.76496C10.7882 2.26487 15.441 2.26487 19.9388 2.76496C21.7215 2.96317 23.1496 4.36265 23.3561 6.11956C23.8936 10.6909 23.8936 15.309 23.3561 19.8804C23.1496 21.6373 21.7215 23.0368 19.9388 23.235C15.441 23.7351 10.7882 23.7351 6.2904 23.235C4.50769 23.0368 3.07964 21.6373 2.87308 19.8804C2.33563 15.309 2.33563 10.6909 2.87308 6.11956C3.07964 4.36265 4.50769 2.96317 6.2904 2.76496Z" fill="white"/>
</svg>
