<svg width="32" height="21" viewBox="0 0 32 21" fill="none" xmlns="http://www.w3.org/2000/svg">
<path fill-rule="evenodd" clip-rule="evenodd" d="M31.0566 16.4866C30.3277 15.0259 29.3672 13.6916 28.212 12.535C27.8189 12.0803 27.3579 11.6317 26.9981 11.2815L26.9478 11.2325C26.7622 11.0519 26.6088 10.9018 26.4833 10.7726C28.0629 8.58758 29.4148 6.24785 30.5179 3.78955L30.5624 3.69036L30.5936 3.58627C30.7386 3.10241 30.9055 2.18232 30.3149 1.35081C29.7044 0.491371 28.7267 0.336375 28.0722 0.336375H25.0605C24.4326 0.307739 23.8109 0.476594 23.2841 0.819891C22.7534 1.16578 22.3474 1.67029 22.124 2.26005C21.4754 3.79697 20.6639 5.25885 19.7042 6.62123V3.11017C19.7042 2.65632 19.6612 1.89711 19.1727 1.25631C18.5878 0.489057 17.742 0.336375 17.1549 0.336375H12.376C11.7603 0.322209 11.1615 0.541218 10.7014 0.950038C10.2301 1.36871 9.94131 1.95353 9.89622 2.58049L9.89195 2.63988V2.69943C9.89195 3.34673 10.1498 3.82421 10.3558 4.12451C10.448 4.25895 10.5466 4.38133 10.6089 4.45863L10.6233 4.47647C10.6898 4.55889 10.7341 4.6139 10.7786 4.67413C10.8957 4.83256 11.0641 5.07682 11.1117 5.7089V7.67285C10.2879 6.32556 9.4188 4.53267 8.76488 2.61784L8.75485 2.58845L8.74372 2.55946C8.58067 2.13463 8.31915 1.51649 7.79539 1.04347C7.18351 0.490868 6.45978 0.336375 5.8016 0.336375H2.74584C2.07998 0.336375 1.27725 0.49134 0.678281 1.11991C0.0892774 1.73802 0.0225677 2.47868 0.0225677 2.87248V3.04999L0.0601476 3.22351C0.906539 7.13167 2.65053 10.7915 5.15511 13.9168C6.29061 15.6982 7.82926 17.1914 9.64862 18.2766C11.497 19.3792 13.5823 20.0291 15.7326 20.1729L15.7887 20.1766H15.8449C16.8178 20.1766 17.8319 20.0931 18.5945 19.5875C19.6233 18.9055 19.7042 17.858 19.7042 17.3361V15.8188C19.9682 16.0312 20.2958 16.317 20.6967 16.7011C21.1815 17.1838 21.5675 17.602 21.8986 17.9671L22.0753 18.1625L22.0763 18.1637C22.3334 18.4485 22.5864 18.7288 22.8168 18.9592C23.1065 19.2489 23.4635 19.568 23.9123 19.8038C24.3983 20.0591 24.9085 20.1745 25.4503 20.1745H28.5081C29.1523 20.1745 30.0763 20.023 30.7259 19.2738C31.4339 18.4572 31.3798 17.4564 31.1572 16.7373L31.1172 16.6079L31.0566 16.4866ZM23.3913 16.6274C23.047 16.2478 22.632 15.7978 22.1075 15.276L22.1031 15.2718C20.2855 13.5285 19.4363 13.2248 18.8357 13.2248C18.5164 13.2248 18.163 13.2604 17.9336 13.5446C17.8254 13.6788 17.7685 13.8406 17.7366 14.0093C17.7047 14.1777 17.6938 14.3754 17.6938 14.6006V17.3361C17.6938 17.6758 17.6376 17.8185 17.4796 17.9232C17.2692 18.0627 16.8196 18.1757 15.8562 18.1766C14.0276 18.0526 12.2545 17.4991 10.6825 16.5614C9.1072 15.6217 7.77887 14.3233 6.80688 12.7729L6.7963 12.756L6.78378 12.7405C4.45001 9.85076 2.82378 6.46087 2.03339 2.83872C2.03767 2.6641 2.0757 2.56051 2.13731 2.49586C2.2008 2.42923 2.35463 2.33637 2.74584 2.33637H5.8016C6.14153 2.33637 6.31745 2.40993 6.44406 2.52428C6.58761 2.65392 6.7121 2.87406 6.86335 3.26715C7.61339 5.46178 8.62767 7.51416 9.58813 9.02327C10.0682 9.77756 10.5407 10.4054 10.9663 10.849C11.1788 11.0705 11.3872 11.2541 11.5861 11.3846C11.7786 11.5108 11.9968 11.6104 12.2212 11.6104C12.3396 11.6104 12.4781 11.5983 12.6115 11.5396C12.755 11.4764 12.8663 11.3711 12.945 11.23C13.0841 10.9803 13.1222 10.6106 13.1222 10.1262V5.64124L13.1215 5.63072C13.052 4.53959 12.7209 3.92583 12.3984 3.4895C12.3278 3.39387 12.2581 3.30749 12.1971 3.23191L12.1804 3.21119C12.1134 3.12813 12.0602 3.06101 12.0164 2.99718C11.9362 2.88024 11.9051 2.79871 11.9025 2.71133C11.913 2.60763 11.9621 2.51139 12.0405 2.44177C12.1218 2.3695 12.2283 2.33188 12.3373 2.33637H17.1549C17.431 2.33637 17.524 2.40342 17.5709 2.46483C17.637 2.55152 17.6938 2.73182 17.6938 3.11017V9.14832C17.6938 9.86557 18.0261 10.3511 18.5088 10.3511C19.0641 10.3511 19.4645 10.0159 20.1646 9.31939L20.1763 9.30776L20.1868 9.29505C21.7559 7.39133 23.0385 5.27056 23.993 2.99916L23.9991 2.98213C24.0709 2.78143 24.2067 2.60959 24.3858 2.49285C24.565 2.37612 24.7776 2.32088 24.9912 2.33558L25.0027 2.33637H28.0722C28.4908 2.33637 28.6285 2.44236 28.673 2.50503C28.7204 2.57172 28.7534 2.71464 28.6728 2.99492C27.5723 5.44346 26.2114 7.76764 24.614 9.9284L24.604 9.94371C24.4488 10.1796 24.2787 10.4407 24.2541 10.7404C24.2277 11.0623 24.3677 11.3549 24.6127 11.6686C24.7912 11.9312 25.1594 12.2897 25.5329 12.6534L25.5681 12.6877C25.9597 13.069 26.384 13.4821 26.7246 13.882L26.7337 13.8926L26.7436 13.9025C27.7588 14.91 28.603 16.0745 29.2434 17.3508C29.3455 17.6983 29.2829 17.8759 29.2035 17.9675C29.1106 18.0747 28.9024 18.1745 28.5081 18.1745H25.4503C25.2115 18.1745 25.0272 18.1277 24.8511 18.0352C24.6676 17.9388 24.4788 17.7855 24.2422 17.5488C24.0516 17.3582 23.8433 17.1275 23.5893 16.8463C23.5263 16.7765 23.4603 16.7035 23.3913 16.6274Z" fill="white"/>
</svg>
