<svg width="34" height="35" viewBox="0 0 34 35" fill="none" xmlns="http://www.w3.org/2000/svg">
<path fill-rule="evenodd" clip-rule="evenodd" d="M25.5301 10.0001H7.11336L5.53979 7.17954C5.36317 6.86295 5.02903 6.66675 4.6665 6.66675H2.6665C2.11422 6.66675 1.6665 7.11446 1.6665 7.66675C1.6665 8.21903 2.11422 8.66675 2.6665 8.66675H4.0793L5.63223 11.4503L9.21366 19.3746L9.21733 19.3827L9.53278 20.0806L5.93699 23.9161C5.67844 24.1919 5.59751 24.5899 5.72782 24.9448C5.85813 25.2997 6.1774 25.5507 6.55298 25.5936L9.83049 25.9682C13.9301 26.4367 18.0697 26.4367 22.1692 25.9682L25.4467 25.5936C25.9955 25.5309 26.3894 25.0353 26.3267 24.4865C26.264 23.9378 25.7684 23.5438 25.2196 23.6066L21.9421 23.9811C17.9935 24.4324 14.0063 24.4324 10.0576 23.9811L8.7569 23.8325L11.3961 21.0174C11.4216 20.9901 11.4453 20.9619 11.4672 20.9327L12.471 21.0633C13.8775 21.2463 15.2993 21.2822 16.7133 21.1703C20.0113 20.9095 23.0679 19.3402 25.2018 16.8122L25.9726 15.8991C25.9984 15.8684 26.0225 15.8362 26.0445 15.8027L27.481 13.6135C28.4992 12.0618 27.3861 10.0001 25.5301 10.0001ZM11.5415 18.9255C11.321 18.8968 11.1308 18.7567 11.038 18.5548L11.0362 18.5509L8.07549 12.0001H25.5301C25.7953 12.0001 25.9543 12.2946 25.8088 12.5163L24.4054 14.6551L23.6735 15.5221C21.8841 17.6419 19.3211 18.9578 16.5556 19.1766C15.2802 19.2774 13.9977 19.2451 12.729 19.08L11.5415 18.9255Z" fill="#FCA623"/>
<path d="M8.66651 27.6667C7.56194 27.6667 6.66651 28.5622 6.66651 29.6667C6.66651 30.7713 7.56194 31.6668 8.66651 31.6668C9.77108 31.6668 10.6665 30.7713 10.6665 29.6667C10.6665 28.5622 9.77108 27.6667 8.66651 27.6667Z" fill="#FCA623"/>
<path d="M21.3332 29.6667C21.3332 28.5622 22.2286 27.6667 23.3332 27.6667C24.4377 27.6667 25.3332 28.5622 25.3332 29.6667C25.3332 30.7713 24.4377 31.6668 23.3332 31.6668C22.2286 31.6668 21.3332 30.7713 21.3332 29.6667Z" fill="#FCA623"/>
<circle cx="26.5" cy="7.5" r="7.5" fill="#DC2A2A"/>
</svg>
