<svg width="81" height="39" viewBox="0 0 81 39" fill="none" xmlns="http://www.w3.org/2000/svg">
<g clip-path="url(#clip0_2_137)">
<path d="M69.5634 11.1325V20.6673H66.0826V13.9788H62.7311V20.6673H59.2502V11.1318H69.5634V11.1325Z" fill="white"/>
<path fill-rule="evenodd" clip-rule="evenodd" d="M52.1015 21.0082C55.2175 21.0082 57.5314 19.1394 57.5314 16.3064C57.5314 13.5644 55.8242 11.784 52.9711 11.784C51.6543 11.784 50.5678 12.2374 49.7494 13.0197C49.9448 11.4028 51.3426 10.2224 52.8817 10.2224C53.2369 10.2224 55.911 10.2169 55.911 10.2169L57.4231 7.38647C57.4231 7.38647 54.0659 7.46122 52.5052 7.46122C48.9394 7.522 46.5308 10.6924 46.5308 14.543C46.5308 19.0289 48.8799 21.0082 52.1015 21.0082ZM52.1205 14.2911C53.2774 14.2911 54.0795 15.0347 54.0795 16.3061C54.0795 17.4504 53.3668 18.3932 52.1205 18.3958C50.9283 18.3958 50.1262 17.5222 50.1262 16.3256C50.1262 15.0539 50.9283 14.2911 52.1205 14.2911Z" fill="white"/>
<path d="M43.6975 17.4752C43.6975 17.4752 42.8755 17.9387 41.6478 18.0264C40.2363 18.0674 38.9787 17.1954 38.9787 15.6461C38.9787 14.1349 40.0884 13.2687 41.6122 13.2687C42.5465 13.2687 43.7826 13.9022 43.7826 13.9022C43.7826 13.9022 44.687 12.2788 45.1555 11.4669C44.2976 10.8309 43.1549 10.4822 41.8259 10.4822C38.4716 10.4822 35.8737 12.6213 35.8737 15.6269C35.8737 18.6709 38.3155 20.7603 41.8259 20.6973C42.807 20.6615 44.1607 20.3245 44.9857 19.8061L43.6975 17.4752Z" fill="white"/>
<path d="M0.895874 8.48901L5.72436 16.9309V22.0802L0.901523 30.5055L0.895874 8.48901Z" fill="#5B57A2"/>
<path d="M19.4353 13.8591L23.9598 11.1466L33.2193 11.1382L19.4353 19.3977V13.8591Z" fill="#D90751"/>
<path d="M19.4097 8.43927L19.4353 19.616L14.5955 16.7073V0L19.41 8.43927H19.4097Z" fill="#FAB718"/>
<path d="M33.2193 11.1381L23.9594 11.1465L19.4097 8.43927L14.5955 0L33.219 11.1381H33.2193Z" fill="#ED6F26"/>
<path d="M19.4353 30.5522V25.1296L14.5955 22.2761L14.5982 39L19.4353 30.5522Z" fill="#63B22F"/>
<path d="M23.9485 27.8645L5.72402 16.9309L0.895874 8.48901L33.1997 27.8535L23.9481 27.8645H23.9485Z" fill="#1487C9"/>
<path d="M14.5985 39L19.435 30.5523L23.9481 27.8646L33.1994 27.8535L14.5985 39Z" fill="#017F36"/>
<path d="M0.901489 30.5056L14.635 22.2766L10.0179 19.5056L5.72432 22.0803L0.901489 30.5056Z" fill="#984995"/>
<path d="M38.9797 27.0844C38.8734 27.217 38.7335 27.3171 38.5657 27.3847C38.3935 27.4533 38.2093 27.4881 38.0234 27.4874C37.8386 27.4899 37.6548 27.4597 37.4808 27.3984C37.3246 27.3429 37.1819 27.2563 37.0615 27.1442C36.9427 27.0319 36.8494 26.8963 36.7877 26.7464C36.721 26.5822 36.6877 26.4067 36.6897 26.23C36.6897 26.0545 36.7206 25.892 36.7848 25.7379C36.8462 25.5836 36.9356 25.4513 37.0476 25.3401C37.1595 25.2267 37.2938 25.1403 37.4446 25.0727C37.5985 25.0077 37.7663 24.9726 37.9507 24.9726C38.1494 24.9726 38.3338 24.9969 38.5016 25.0454C38.6694 25.0941 38.8119 25.1754 38.9292 25.2891L38.7252 25.6271C38.6265 25.5396 38.5103 25.4732 38.3839 25.4321C38.2638 25.3943 38.1383 25.3752 38.0121 25.3756C37.9005 25.3756 37.7942 25.397 37.6908 25.4376C37.589 25.4778 37.496 25.5365 37.4167 25.6109C37.3357 25.6873 37.2719 25.7794 37.2293 25.8813C37.1818 25.9866 37.1595 26.1029 37.1595 26.2326C37.1595 26.3652 37.1845 26.4841 37.232 26.5868C37.2798 26.6925 37.344 26.7818 37.425 26.8572C37.5061 26.9333 37.6011 26.9898 37.7101 27.0279C37.8194 27.0685 37.9341 27.0873 38.057 27.0873C38.2078 27.0873 38.3451 27.0574 38.4624 27.0006C38.5786 26.9456 38.683 26.8695 38.77 26.7763L38.9797 27.0844ZM39.5555 27.4305V25.0239H39.9974V26.8169L41.4345 25.0239H41.8764V27.4309H41.4345V25.6378L39.9974 27.4309H39.5555V27.4305ZM44.8036 27.0844C44.6949 27.2181 44.5523 27.3217 44.39 27.3847C44.2177 27.4532 44.0334 27.4881 43.8474 27.4874C43.6626 27.4898 43.4789 27.4597 43.3051 27.3984C43.1488 27.3429 43.0059 27.2563 42.8855 27.1442C42.7667 27.0319 42.6734 26.8963 42.6117 26.7464C42.5449 26.5822 42.5116 26.4067 42.5137 26.23C42.5137 26.0545 42.5446 25.892 42.6087 25.7379C42.6705 25.5836 42.7599 25.4513 42.8715 25.3401C42.9835 25.2267 43.1177 25.1403 43.2686 25.0727C43.4279 25.004 43.6005 24.9699 43.7746 24.9726C43.9733 24.9726 44.1577 24.9969 44.3255 25.0454C44.4933 25.0941 44.6359 25.1754 44.7535 25.2891L44.5491 25.6271C44.4506 25.5396 44.3345 25.4732 44.2082 25.4321C44.0881 25.3943 43.9626 25.3752 43.8364 25.3756C43.6143 25.3763 43.401 25.4605 43.2407 25.6109C43.1604 25.6879 43.0967 25.7798 43.0533 25.8813C43.0058 25.9866 42.9835 26.1029 42.9835 26.2326C42.9835 26.3652 43.0087 26.4841 43.0563 26.5868C43.1038 26.6925 43.1679 26.7818 43.249 26.8572C43.33 26.9333 43.4254 26.9898 43.5344 27.0279C43.6434 27.0656 43.758 27.0873 43.8809 27.0873C44.0321 27.0873 44.1664 27.0574 44.2863 27.0006C44.4025 26.9456 44.507 26.8695 44.594 26.7763L44.8036 27.0844ZM45.0302 25.0239H47.2976V25.4513H46.3862V27.4305H45.9443V25.4513H45.0329V25.0239H45.0302Z" fill="white"/>
<path fill-rule="evenodd" clip-rule="evenodd" d="M49.3613 27.4065C49.5291 27.3552 49.6717 27.2765 49.7946 27.1686L49.6604 26.8332C49.5793 26.9037 49.4703 26.9632 49.3391 27.012C49.2075 27.0607 49.0593 27.0848 48.8972 27.0848C48.6539 27.0848 48.4526 27.0227 48.2931 26.8956C48.134 26.7682 48.0472 26.5901 48.0276 26.3626H49.9402C49.9598 26.2788 49.9681 26.1842 49.9681 26.0734C49.9681 25.9083 49.9372 25.7597 49.8757 25.6245C49.8185 25.4932 49.7349 25.3745 49.6298 25.2755C49.5233 25.1774 49.3978 25.1011 49.2607 25.0512C49.1171 24.9968 48.9644 24.9692 48.8104 24.97C48.6034 24.97 48.4217 25.0051 48.2625 25.0701C48.1121 25.132 47.976 25.2231 47.8625 25.3379C47.7523 25.4521 47.6677 25.5874 47.614 25.7354C47.5549 25.8929 47.5255 26.0596 47.5272 26.2274C47.5272 26.4169 47.5608 26.5898 47.6223 26.7442C47.6821 26.8937 47.7736 27.0292 47.8907 27.1416C48.0054 27.2521 48.1449 27.3363 48.3101 27.3958C48.4869 27.4571 48.6734 27.4873 48.861 27.4848C49.0308 27.4838 49.1996 27.4575 49.3613 27.4068V27.4065ZM48.2429 25.554C48.3798 25.4325 48.5616 25.373 48.7908 25.373C49.0062 25.373 49.1796 25.4299 49.3055 25.5436C49.4315 25.657 49.4982 25.814 49.5095 26.0139H47.9997C48.0211 25.8369 48.1076 25.6736 48.2429 25.5543V25.554Z" fill="white"/>
<path d="M50.5691 25.0239H50.9718L51.9281 26.2167L52.8338 25.0239H53.2252V27.4309H52.7836V25.6759L51.9224 26.7926H51.9055L51.011 25.6756V27.4306H50.5691V25.0239Z" fill="white"/>
<path fill-rule="evenodd" clip-rule="evenodd" d="M54.4274 25.0321C54.2933 25.0664 54.1652 25.12 54.0473 25.1913L54.1646 25.5326C54.2653 25.4838 54.3659 25.4432 54.4666 25.4081C54.5673 25.3727 54.6959 25.3564 54.8497 25.3564C54.9726 25.3564 55.0707 25.3756 55.1461 25.4133C55.2215 25.4484 55.2773 25.5027 55.3165 25.5677C55.3557 25.6327 55.381 25.7136 55.395 25.8082C55.4089 25.9028 55.4146 26.0055 55.4146 26.1166C55.3241 26.055 55.2211 26.0134 55.1125 25.9947C55.0076 25.9743 54.9009 25.9635 54.7939 25.9622C54.6623 25.9622 54.5394 25.9814 54.4217 26.0136C54.3045 26.0461 54.2038 26.0948 54.1227 26.1598C54.04 26.2247 53.9731 26.3069 53.927 26.4003C53.8778 26.5027 53.8529 26.6146 53.8542 26.7276C53.8542 26.9629 53.9243 27.1469 54.0639 27.2769C54.2038 27.4065 54.3882 27.4712 54.6175 27.4712C54.8245 27.4712 54.9896 27.4361 55.1152 27.3659C55.2411 27.2954 55.3418 27.2145 55.4146 27.1225V27.4335H55.8282V25.957C55.8282 25.6431 55.7585 25.4 55.6159 25.2294C55.476 25.0591 55.2272 24.9726 54.875 24.9726C54.7181 24.9726 54.5699 24.9941 54.4274 25.0321ZM55.166 26.9821C55.0653 27.0523 54.9338 27.0845 54.7716 27.0845C54.6291 27.0845 54.5171 27.0494 54.439 26.9818C54.3606 26.9116 54.3214 26.8196 54.3214 26.7058C54.3214 26.6386 54.3354 26.5817 54.3663 26.5303C54.3972 26.479 54.439 26.4384 54.4865 26.4059C54.5385 26.3719 54.5962 26.3471 54.657 26.3327C54.7215 26.3165 54.7856 26.3084 54.8527 26.3084C55.071 26.3084 55.2581 26.3597 55.4119 26.4679V26.7734C55.3394 26.8529 55.2568 26.9229 55.166 26.9818V26.9821ZM59.729 24.1773C59.8184 24.137 59.9021 24.0694 59.9806 23.9693L59.74 23.6313C59.6785 23.7126 59.6087 23.7691 59.5303 23.799C59.4472 23.8308 59.3611 23.8543 59.2732 23.8692L59.1894 23.8839C59.1167 23.8962 59.0386 23.9099 58.9545 23.9235C58.8197 23.9479 58.6883 23.9878 58.5631 24.0425C58.3644 24.1263 58.2053 24.2397 58.085 24.3831C57.9647 24.5264 57.8697 24.6886 57.8052 24.8673C57.7399 25.0484 57.6959 25.2362 57.674 25.427C57.6514 25.622 57.6404 25.8082 57.6404 25.9866C57.6404 26.2167 57.671 26.4247 57.7324 26.6113C57.7942 26.7981 57.8806 26.9548 57.9953 27.0819C58.1099 27.2119 58.2471 27.3094 58.4093 27.3796C58.5714 27.4498 58.7532 27.4849 58.9572 27.4849C59.1446 27.4849 59.318 27.4498 59.4745 27.3848C59.6254 27.3223 59.7622 27.2314 59.8772 27.1173C59.9889 27.0061 60.0786 26.8735 60.14 26.725C60.2042 26.5762 60.2351 26.4166 60.2351 26.2489C60.2351 26.0679 60.2072 25.9031 60.154 25.7568C60.105 25.6174 60.027 25.4895 59.9247 25.3811C59.8223 25.2746 59.6972 25.1914 59.5582 25.1374C59.4052 25.0784 59.2419 25.0491 59.0775 25.0509C58.9711 25.0509 58.8678 25.0646 58.7671 25.0916C58.6692 25.1186 58.5752 25.1577 58.4874 25.2079C58.4021 25.2557 58.3241 25.3147 58.2554 25.3834C58.1883 25.4513 58.1325 25.5271 58.0933 25.6135H58.082C58.0906 25.5027 58.1046 25.3893 58.1295 25.2729C58.1548 25.1566 58.191 25.0454 58.2388 24.9401C58.2863 24.8348 58.3478 24.7399 58.4232 24.6535C58.5041 24.5662 58.6033 24.497 58.714 24.4507C58.8357 24.394 58.9645 24.3531 59.0971 24.3291L59.1848 24.3135C59.2722 24.2979 59.3556 24.283 59.4353 24.2667C59.5416 24.2453 59.6393 24.218 59.729 24.1777V24.1773ZM58.1744 26.4897C58.1311 26.3532 58.1104 26.2108 58.1129 26.0679C58.1316 25.9858 58.1658 25.9079 58.2136 25.8381C58.2611 25.765 58.3226 25.7003 58.3953 25.6431C58.5595 25.5173 58.7625 25.4497 58.9711 25.4513C59.2313 25.4513 59.427 25.5297 59.5639 25.684C59.7011 25.8407 59.7682 26.0354 59.7682 26.2707C59.7682 26.387 59.7456 26.4926 59.7068 26.5898C59.669 26.6857 59.6119 26.7731 59.5389 26.847C59.4659 26.9209 59.3785 26.9796 59.2818 27.0198C59.1811 27.063 59.0718 27.0848 58.9489 27.0848C58.8259 27.0848 58.714 27.0604 58.6106 27.0117C58.5079 26.9639 58.4172 26.8947 58.3448 26.8089C58.269 26.7133 58.2113 26.6052 58.1744 26.4897ZM63.6239 25.024H63.1819V27.4309H63.6239V25.024ZM60.8724 25.024H61.3143V25.7461H61.7226C61.9153 25.7461 62.0718 25.7705 62.1978 25.8163C62.3237 25.8625 62.4244 25.9245 62.4998 26.0003C62.5752 26.076 62.6284 26.1654 62.6593 26.2651C62.6899 26.3652 62.7068 26.4679 62.7068 26.5762C62.7068 26.6844 62.6899 26.7874 62.6536 26.8901C62.6201 26.9928 62.5613 27.0819 62.4828 27.1631C62.4048 27.2444 62.2984 27.3094 62.1642 27.3581C62.03 27.4065 61.8678 27.4335 61.6721 27.4335H60.8697V25.024H60.8724ZM61.3143 26.1488V27.0305H61.6359C61.8569 27.0305 62.0134 26.9928 62.1027 26.9168C62.1924 26.841 62.237 26.7331 62.237 26.5898C62.237 26.4436 62.1895 26.3331 62.1001 26.257C62.0077 26.1813 61.8539 26.1433 61.6416 26.1433H61.3143V26.1488Z" fill="white"/>
<path d="M66.5458 27.0844C66.4395 27.217 66.2996 27.3171 66.1318 27.3847C65.9596 27.4532 65.7754 27.4881 65.5895 27.4874C65.4047 27.4899 65.2209 27.4597 65.0469 27.3984C64.8907 27.3429 64.7479 27.2564 64.6276 27.1442C64.5088 27.0318 64.4154 26.8963 64.3535 26.7464C64.287 26.5821 64.2538 26.4067 64.2558 26.23C64.2558 26.0545 64.2864 25.892 64.3509 25.7379C64.4123 25.5836 64.5017 25.4513 64.6137 25.3401C64.7256 25.2267 64.8595 25.1403 65.0107 25.0727C65.1701 25.004 65.3427 24.9699 65.5168 24.9726C65.7151 24.9726 65.8999 24.9969 66.0677 25.0454C66.2355 25.0941 66.378 25.1754 66.4953 25.2891L66.2913 25.6271C66.1926 25.5396 66.0764 25.4732 65.95 25.4321C65.8299 25.3943 65.7044 25.3752 65.5782 25.3756C65.4666 25.3756 65.3603 25.397 65.2566 25.4376C65.1549 25.4778 65.0619 25.5366 64.9828 25.6109C64.9024 25.6878 64.8387 25.7797 64.7954 25.8813C64.7479 25.9866 64.7256 26.1029 64.7256 26.2326C64.7256 26.3652 64.7506 26.4841 64.7981 26.5868C64.8456 26.6925 64.9101 26.7818 64.9911 26.8572C65.0722 26.9333 65.1672 26.9898 65.2762 27.0279C65.3855 27.0656 65.5002 27.0873 65.6231 27.0873C65.7739 27.0873 65.9082 27.0574 66.0285 27.0006C66.1447 26.9457 66.2491 26.8695 66.3361 26.7763L66.5458 27.0844ZM66.7721 25.0239H69.0398V25.4513H68.128V27.4305H67.6865V25.4513H66.7751V25.0239H66.7721Z" fill="white"/>
<path fill-rule="evenodd" clip-rule="evenodd" d="M69.9624 25.0242H69.5205V28.5017H69.9624V27.32C70.0518 27.3769 70.1581 27.4175 70.2811 27.4445C70.404 27.4714 70.5326 27.4848 70.6642 27.4848C70.8599 27.4848 71.036 27.4497 71.1955 27.385C71.3484 27.321 71.4871 27.2282 71.6035 27.112C71.7181 26.9953 71.8048 26.8601 71.8663 26.7005C71.9278 26.5413 71.9587 26.3707 71.9587 26.1896C71.9587 26.0109 71.9308 25.8461 71.8776 25.6973C71.8275 25.5559 71.7497 25.4255 71.6483 25.3134C71.5489 25.2041 71.4256 25.1181 71.2875 25.0619C71.1366 24.9984 70.9736 24.9671 70.8094 24.9699C70.6363 24.9699 70.4741 25.0024 70.3203 25.0674C70.1664 25.1324 70.0462 25.2104 69.9624 25.3079V25.0242ZM70.2701 25.4704C70.396 25.4054 70.5329 25.3729 70.6811 25.3729C70.8097 25.3729 70.9243 25.3918 71.028 25.4324C71.1287 25.473 71.2124 25.5299 71.2825 25.6056C71.3523 25.6813 71.4055 25.7681 71.439 25.8705C71.4752 25.9732 71.4922 26.0843 71.4922 26.2059C71.4922 26.3359 71.4696 26.4519 71.4307 26.5601C71.3941 26.6627 71.3359 26.7567 71.2599 26.8361C71.1836 26.9144 71.0912 26.9761 70.9888 27.0171C70.8746 27.0639 70.7517 27.0869 70.628 27.0847C70.508 27.0847 70.396 27.0714 70.2897 27.0444C70.1733 27.0134 70.0629 26.964 69.9628 26.8981V25.7054C70.0408 25.6137 70.1445 25.5354 70.2701 25.4704ZM75.3475 25.0239H74.9055V27.4308H75.3475V25.0239ZM72.5933 25.0239H73.0352V25.746H73.4432C73.6363 25.746 73.7928 25.7704 73.9187 25.8162C74.0446 25.8624 74.1453 25.9244 74.2207 26.0002C74.2962 26.0759 74.3493 26.1653 74.3799 26.265C74.4108 26.3651 74.4274 26.4678 74.4274 26.5761C74.4274 26.6843 74.4108 26.7873 74.3746 26.89C74.341 26.9927 74.2822 27.0818 74.2038 27.163C74.1257 27.2443 74.0194 27.3093 73.8852 27.358C73.7509 27.4064 73.5888 27.4334 73.3931 27.4334H72.5906V25.0239H72.5933ZM73.0382 26.1487V27.0304H73.3598C73.5805 27.0304 73.7373 26.9927 73.8267 26.9167C73.9161 26.8409 73.9609 26.733 73.9609 26.5897C73.9609 26.4435 73.9134 26.333 73.824 26.2569C73.7317 26.1812 73.5778 26.1432 73.3655 26.1432H73.0382V26.1487Z" fill="white"/>
<path d="M77.467 26.1842L78.412 27.4309H77.8697L77.1397 26.4572L76.3988 27.4309H75.8844L76.8237 26.2056L75.9403 25.0239H76.4828L77.1567 25.9326L77.8415 25.0239H78.3562L77.467 26.1842ZM38.6527 30.4056H37.2968V32.4122H36.8549V30.0055H39.0943V32.4122H38.6527V30.4056ZM41.6023 30.4326H40.7301L40.7018 30.8382C40.6713 31.1817 40.6294 31.4576 40.5706 31.6682C40.5118 31.8795 40.439 32.0417 40.3553 32.1551C40.2715 32.2688 40.1735 32.3472 40.0616 32.3852C39.946 32.4262 39.8239 32.4463 39.701 32.4447L39.6675 32.028C39.715 32.0306 39.7708 32.0199 39.8323 31.9929C39.8941 31.9659 39.9556 31.9065 40.014 31.8174C40.0729 31.7251 40.126 31.5954 40.1735 31.4277C40.221 31.2574 40.2519 31.0358 40.2686 30.7569L40.3134 30.0078H42.0442V32.4148H41.6023V30.4323V30.4326Z" fill="white"/>
<path fill-rule="evenodd" clip-rule="evenodd" d="M43.2353 30.0111C43.0925 30.0488 42.9639 30.1028 42.8549 30.1704L42.9725 30.5113C43.0732 30.4626 43.1739 30.4219 43.2742 30.3868C43.3749 30.3517 43.5038 30.3355 43.6573 30.3355C43.7806 30.3355 43.8783 30.3543 43.9537 30.392C44.0294 30.4275 44.0853 30.4814 44.1245 30.5464C44.1633 30.6114 44.1886 30.6927 44.2026 30.7869C44.2165 30.8818 44.2222 30.9845 44.2222 31.0953C44.1317 31.0338 44.0287 30.9923 43.9201 30.9738C43.8152 30.9534 43.7085 30.9425 43.6015 30.9413C43.4702 30.9413 43.347 30.9601 43.2297 30.9926C43.1121 31.0251 43.0114 31.0739 42.9303 31.1389C42.8476 31.2038 42.7807 31.2859 42.7346 31.3794C42.6855 31.4817 42.6607 31.5936 42.6622 31.7067C42.6622 31.9416 42.7319 32.1259 42.8718 32.2556C43.0114 32.3853 43.1961 32.4503 43.4254 32.4503C43.6324 32.4503 43.7972 32.4152 43.9231 32.3446C44.0487 32.2744 44.1494 32.1932 44.2222 32.1012V32.4122H44.6362V30.9358C44.6362 30.6221 44.5661 30.3787 44.4235 30.2084C44.2836 30.0378 44.0348 29.9517 43.6826 29.9517C43.5315 29.9518 43.381 29.9717 43.2353 30.0108V30.0111ZM43.9763 31.9605C43.8759 32.031 43.7444 32.0635 43.5822 32.0635C43.4367 32.0635 43.3277 32.0284 43.2496 31.9605C43.1712 31.8903 43.132 31.7983 43.132 31.6849C43.132 31.6173 43.1459 31.5604 43.1768 31.5091C43.2074 31.4577 43.2496 31.4171 43.2971 31.3846C43.3446 31.3521 43.4031 31.3277 43.4676 31.3115C43.5315 31.2953 43.5973 31.2872 43.6633 31.2874C43.8813 31.2874 44.0686 31.3388 44.2225 31.4467V31.7522C44.1499 31.8316 44.0671 31.9016 43.9763 31.9605Z" fill="white"/>
<path d="M45.0691 30.0056H47.3368V30.4327H46.4251V32.4122H45.9835V30.433H45.0721V30.0056H45.0691Z" fill="white"/>
<path fill-rule="evenodd" clip-rule="evenodd" d="M49.4005 32.3879C49.5683 32.3365 49.7109 32.2579 49.8338 32.15L49.6996 31.8146C49.6185 31.8851 49.5095 31.9446 49.3779 31.9933C49.2467 32.0421 49.0985 32.0661 48.9364 32.0661C48.6931 32.0661 48.4918 32.004 48.3323 31.877C48.1728 31.7499 48.0864 31.5715 48.0668 31.344H49.9793C49.9986 31.2604 50.0073 31.1655 50.0073 31.0547C50.0073 30.8899 49.9764 30.7411 49.9149 30.6059C49.8576 30.4746 49.7739 30.356 49.6687 30.2571C49.5624 30.1588 49.437 30.0825 49.2999 30.0326C49.1563 29.9781 49.0036 29.9506 48.8496 29.9513C48.6426 29.9513 48.4609 29.9864 48.3017 30.0514C48.1512 30.1132 48.0151 30.2043 47.9017 30.3192C47.7915 30.4335 47.7068 30.5688 47.6528 30.7167C47.5939 30.8743 47.5645 31.041 47.5661 31.2088C47.5661 31.3982 47.5997 31.5711 47.6611 31.7255C47.7229 31.8796 47.815 32.0122 47.9296 32.123C48.0442 32.2338 48.1841 32.3177 48.3493 32.3771C48.5259 32.4386 48.7123 32.4688 48.8998 32.4665C49.065 32.4665 49.2327 32.4392 49.4005 32.3879ZM48.2795 30.5327C48.4164 30.4112 48.5981 30.3517 48.8274 30.3517C49.0457 30.3517 49.2161 30.4112 49.3421 30.522C49.4677 30.6358 49.5348 30.7924 49.5461 30.9926H48.0363C48.0576 30.8155 48.144 30.6521 48.2795 30.5327ZM50.2226 30.0056H50.7818L51.6344 31.1658L50.723 32.4122H50.1807L51.1366 31.1655L50.2226 30.0053V30.0056ZM51.7433 30.0056H52.1853V32.4122H51.7433V30.0056ZM53.7648 32.4122L52.792 31.1655L53.7007 30.0053H53.1525L52.2942 31.1655L53.2169 32.4122H53.7648ZM55.7837 32.3879C55.9515 32.3365 56.094 32.2579 56.217 32.15L56.0827 31.8146C56.0017 31.8851 55.8927 31.9446 55.7614 31.9933C55.6299 32.0421 55.4817 32.0661 55.3195 32.0661C55.0763 32.0661 54.8749 32.004 54.7155 31.877C54.5563 31.7499 54.4696 31.5715 54.45 31.344H56.3625C56.3821 31.2604 56.3904 31.1655 56.3904 31.0547C56.3904 30.8899 56.3598 30.7411 56.298 30.6059C56.2408 30.4747 56.1572 30.3561 56.0522 30.2571C55.9458 30.1588 55.8202 30.0825 55.683 30.0326C55.5395 29.9781 55.3868 29.9505 55.2328 29.9513C55.0261 29.9513 54.8444 29.9864 54.6849 30.0514C54.5345 30.1133 54.3985 30.2044 54.2852 30.3192C54.1748 30.4333 54.09 30.5687 54.0363 30.7167C53.9772 30.8742 53.9479 31.041 53.9496 31.2088C53.9496 31.3982 53.9831 31.5711 54.0446 31.7255C54.1061 31.8796 54.1985 32.0122 54.3131 32.123C54.4277 32.2338 54.5673 32.3177 54.7324 32.3771C54.9092 32.4386 55.0957 32.4688 55.2833 32.4665C55.4532 32.4653 55.6219 32.4387 55.7837 32.3879ZM54.6626 30.5327C54.7999 30.4112 54.9816 30.3517 55.2109 30.3517C55.4262 30.3517 55.5993 30.4112 55.7252 30.522C55.8511 30.6358 55.9183 30.7924 55.9292 30.9926H54.4194C54.4407 30.8155 54.5272 30.6521 54.6626 30.5327ZM58.183 29.197C57.9228 29.197 57.7803 29.0563 57.758 28.7751H57.3413C57.3413 28.883 57.361 28.9805 57.3972 29.0725C57.4337 29.1645 57.4869 29.2428 57.5567 29.3078C57.6264 29.3728 57.7161 29.4242 57.8195 29.4645C57.9228 29.5051 58.0431 29.5239 58.18 29.5239C58.3059 29.5239 58.4179 29.5051 58.5186 29.4645C58.6192 29.4268 58.703 29.3728 58.7757 29.3078C58.8455 29.2428 58.9017 29.1645 58.9405 29.0725C58.9798 28.9805 58.9994 28.883 58.9994 28.7751H58.5857C58.5661 29.0563 58.4289 29.197 58.183 29.197ZM56.9888 30.0053V32.4122H57.4307L58.8678 30.6192V32.4122H59.3097V30.0053H58.8678L57.4307 31.7983V30.0053H56.9888Z" fill="white"/>
</g>
<defs>
<clipPath id="clip0_2_137">
<rect width="79.4115" height="39" fill="white" transform="translate(0.895874)"/>
</clipPath>
</defs>
</svg>
